<svg width="32" height="9" viewBox="0 0 32 9" fill="none" xmlns="http://www.w3.org/2000/svg">
<path d="M4.84585 8.01302C4.38299 8.09458 3.91198 8.11903 3.42476 8.18416L1.93864 3.81666V8.3716C1.47578 8.42048 1.05351 8.48566 0.61499 8.55085V0.206909H1.84936L3.53843 4.94119V0.206909H4.84585V8.01302ZM7.40387 3.26255C7.90739 3.26255 8.67884 3.2381 9.1417 3.2381V4.54181C8.56511 4.54181 7.89113 4.54181 7.40387 4.56627V6.50561C8.16724 6.45674 8.93058 6.39149 9.70201 6.36704V7.62182L6.10453 7.90707V0.206909H9.70201V1.51065H7.40387V3.26255ZM14.5338 1.51068H13.1858V7.50788C12.7473 7.50788 12.3087 7.50788 11.8865 7.52413V1.51068H10.5385V0.206909H14.5339L14.5338 1.51068ZM16.6452 3.17295H18.4236V4.47666H16.6452V7.43455H15.3701V0.206909H19.0002V1.51065H16.6452V3.17295ZM21.1115 6.29374C21.8505 6.31 22.5976 6.36713 23.3204 6.4078V7.69527C22.1591 7.62188 20.9979 7.54864 19.8123 7.52413V0.206909H21.1115V6.29374ZM24.4166 7.7849C24.8308 7.80939 25.2693 7.83384 25.6916 7.88265V0.206909H24.4166V7.7849ZM31.3842 0.206909L29.7357 4.17518L31.3842 8.55085C30.8969 8.48566 30.4097 8.39603 29.9224 8.31453L28.9886 5.90266L28.0386 8.11903C27.5675 8.03748 27.1127 8.01302 26.6418 7.94784L28.3146 4.12625L26.8042 0.206909H28.2009L29.0535 2.39883L29.9631 0.206909H31.3842Z" fill="#D81F26"/>
</svg>
