<svg width="28" height="32" viewBox="0 0 28 32" fill="none" xmlns="http://www.w3.org/2000/svg">
<path fill-rule="evenodd" clip-rule="evenodd" d="M13.5651 31.8619C13.7423 31.9544 13.9404 32.0015 14.1385 31.9999C14.3367 31.9984 14.5332 31.9497 14.712 31.8556L20.4206 28.8039C22.0394 27.941 23.3071 26.9761 24.2961 25.8527C26.4465 23.4051 27.6208 20.2813 27.5998 17.0602L27.5322 6.43517C27.5257 5.21138 26.722 4.11938 25.5332 3.72243L14.9133 0.159303C14.2738 -0.0572148 13.5732 -0.0525079 12.9449 0.170286L2.36534 3.8605C1.18303 4.27314 0.393743 5.37298 0.400186 6.59834L0.467838 17.2155C0.488779 20.4413 1.70331 23.551 3.88914 25.9735C4.88782 27.0812 6.16678 28.032 7.80333 28.8808L13.5651 31.8619ZM12.0539 19.3743C12.2923 19.6034 12.6015 19.7163 12.9108 19.7132C13.2201 19.7116 13.5277 19.5955 13.7629 19.3633L20.0015 13.213C20.4702 12.7501 20.4654 12.0064 19.9918 11.5498C19.5166 11.0933 18.7515 11.0964 18.2828 11.5593L12.8931 16.8718L10.6863 14.7505C10.2111 14.294 9.44764 14.2987 8.97729 14.7615C8.50855 15.2244 8.51338 15.9681 8.98856 16.4246L12.0539 19.3743Z" fill="#00F6FF"/>
</svg>
